<?xml version="1.0" standalone="no"?>
<!DOCTYPE svg PUBLIC "-//W3C//DTD SVG 20010904//EN"
 "http://www.w3.org/TR/2001/REC-SVG-20010904/DTD/svg10.dtd">
<svg version="1.0" xmlns="http://www.w3.org/2000/svg"
 width="303.000000pt" height="173.000000pt" viewBox="0 0 303.000000 173.000000"
 preserveAspectRatio="xMidYMid meet">

<g transform="translate(0.000000,173.000000) scale(0.100000,-0.100000)"
fill="#000000" stroke="none">
<path d="M540 1331 c-50 -10 -95 -36 -119 -68 l-20 -28 -1 48 0 47 -45 0 c-42
0 -45 -2 -35 -19 15 -29 14 -633 -2 -649 -9 -9 -2 -12 35 -12 l47 0 0 278 c0
319 2 329 80 370 110 56 245 0 310 -129 33 -64 46 -167 32 -250 -30 -174 -126
-255 -317 -270 l-100 -7 105 3 c118 3 185 20 252 65 87 58 128 147 128 280 0
92 -16 152 -59 213 -64 93 -189 148 -291 128z"/>
<path d="M2295 1122 c-6 -4 -9 -74 -7 -184 3 -172 4 -178 24 -178 16 0 19 4
14 23 -3 12 -6 95 -6 185 0 89 -3 162 -7 162 -5 0 -12 -4 -18 -8z"/>
<path d="M1225 888 c35 -82 58 -124 70 -126 21 -5 21 -4 -35 135 -38 94 -49
113 -66 113 -20 0 -18 -7 31 -122z"/>
<path d="M1322 1002 c65 -163 105 -242 120 -242 22 0 22 2 -1 53 -35 78 -71
170 -71 184 0 7 -11 13 -26 13 -14 0 -24 -4 -22 -8z"/>
<path d="M1516 995 c4 -8 7 -15 9 -15 1 0 8 7 15 15 10 13 9 15 -8 15 -15 0
-20 -5 -16 -15z"/>
<path d="M1722 995 c15 -8 35 -29 43 -45 10 -19 20 -27 30 -24 8 4 15 9 15 13
0 16 -57 60 -85 66 l-30 6 27 -16z"/>
<path d="M1845 885 c0 -118 1 -125 20 -125 18 0 20 7 19 68 -2 173 -3 182 -21
182 -16 0 -18 -13 -18 -125z"/>
<path d="M1939 993 c-13 -15 -12 -15 9 -2 21 13 25 12 43 -10 18 -22 20 -37
17 -123 -3 -96 -3 -98 20 -98 21 0 22 4 22 68 -1 90 -14 153 -36 169 -25 18
-59 16 -75 -4z"/>
<path d="M2149 986 c-97 -66 -90 -216 11 -232 l35 -5 -27 15 c-60 35 -62 154
-3 213 39 39 33 42 -16 9z"/>
<path d="M2388 998 c5 -7 31 -62 56 -123 26 -60 49 -111 51 -113 2 -2 8 5 14
16 8 15 1 39 -34 117 -24 54 -42 102 -39 107 3 4 -9 8 -27 8 -24 0 -29 -3 -21
-12z"/>
<path d="M2580 1000 c0 -5 4 -10 9 -10 6 0 13 5 16 10 3 6 -1 10 -9 10 -9 0
-16 -4 -16 -10z"/>
<path d="M2761 987 c18 -12 39 -33 45 -45 l11 -23 7 23 c9 36 8 38 -29 54 -54
22 -73 17 -34 -9z"/>
<path d="M1608 973 c-66 -76 -44 -174 46 -208 55 -21 75 -13 23 9 -60 24 -92
118 -63 178 19 36 16 46 -6 21z"/>
<path d="M2667 973 c-15 -14 -6 -61 16 -81 12 -11 44 -29 72 -39 31 -12 54
-28 62 -43 l12 -24 7 28 c9 36 -22 69 -79 85 -49 15 -88 47 -80 67 5 15 1 18
-10 7z"/>
<path d="M2640 803 c0 -26 5 -33 31 -42 18 -6 48 -10 68 -10 l36 1 -40 8 c-27
5 -48 18 -67 41 l-28 33 0 -31z"/>
<path d="M2369 714 c-11 -14 -10 -20 14 -40 33 -28 46 -30 73 -9 19 14 18 14
-3 15 -13 0 -30 11 -39 25 -19 29 -27 31 -45 9z"/>
</g>
</svg>
